<svg width="91" height="60" viewBox="0 0 91 60" fill="none" xmlns="http://www.w3.org/2000/svg">
<path fill-rule="evenodd" clip-rule="evenodd" d="M46.4764 36.6888C44.9475 39.6117 40.6759 42.401 37.4164 42.9071C37.1605 42.9469 36.8965 42.9676 36.6256 42.9676H6.52823C2.77127 42.9676 0.356399 38.9792 2.09772 35.6502L17.1464 6.88026C18.7395 3.83464 23.0178 0.443107 26.4303 0.0326413C26.6093 0.0111069 26.7926 4.60751e-06 26.9798 4.57371e-06L57.1296 0C60.8763 0 63.3575 4.41552 61.5513 7.86875L46.4764 36.6888ZM65.2927 5.0237C67.1636 1.44698 72.2829 1.44698 74.1537 5.02369L90.2949 35.8822C92.0362 39.2113 89.6214 43.1997 85.8644 43.1997H53.5821C49.8251 43.1997 47.4102 39.2113 49.1516 35.8822L65.2927 5.0237ZM0 45.1996V59.1996H2V54.9396H5.46C5.76768 54.9396 6.06404 54.9275 6.34907 54.9031L9.36 59.1996H11.54L8.21881 54.5131C8.34952 54.4658 8.47659 54.4147 8.6 54.3596C9.46667 53.973 10.1333 53.4196 10.6 52.6996C11.0667 51.9663 11.3 51.093 11.3 50.0796C11.3 49.0663 11.0667 48.193 10.6 47.4596C10.1333 46.7263 9.46667 46.1663 8.6 45.7796C7.73333 45.393 6.68667 45.1996 5.46 45.1996H0ZM2 53.2396H5.4C6.68 53.2396 7.64667 52.9663 8.3 52.4196C8.96667 51.8596 9.3 51.0796 9.3 50.0796C9.3 49.0796 8.96667 48.3063 8.3 47.7596C7.64667 47.213 6.68 46.9396 5.4 46.9396H2V53.2396ZM15.9513 58.6196C16.7779 59.0863 17.7246 59.3196 18.7913 59.3196C19.8446 59.3196 20.7846 59.0863 21.6112 58.6196C22.4513 58.153 23.1046 57.513 23.5713 56.6996C24.0513 55.8863 24.2913 54.953 24.2913 53.8996C24.2913 52.833 24.0513 51.8996 23.5713 51.0996C23.1046 50.2863 22.4513 49.653 21.6112 49.1996C20.7846 48.733 19.8446 48.4996 18.7913 48.4996C17.7246 48.4996 16.7779 48.733 15.9513 49.1996C15.1246 49.653 14.4712 50.2863 13.9913 51.0996C13.5112 51.913 13.2712 52.8463 13.2712 53.8996C13.2712 54.9396 13.5112 55.873 13.9913 56.6996C14.4712 57.513 15.1246 58.153 15.9513 58.6196ZM20.6112 57.1796C20.0779 57.4863 19.4713 57.6396 18.7913 57.6396C18.1112 57.6396 17.5046 57.4863 16.9713 57.1796C16.4379 56.873 16.0112 56.4396 15.6912 55.8796C15.3713 55.3063 15.2113 54.6463 15.2113 53.8996C15.2113 53.1396 15.3713 52.4863 15.6912 51.9396C16.0112 51.3796 16.4379 50.9463 16.9713 50.6396C17.5046 50.333 18.1112 50.1796 18.7913 50.1796C19.4713 50.1796 20.0779 50.333 20.6112 50.6396C21.1579 50.9463 21.5846 51.3796 21.8913 51.9396C22.1979 52.4863 22.3512 53.1396 22.3512 53.8996C22.3512 54.6463 22.1979 55.3063 21.8913 55.8796C21.5846 56.4396 21.1579 56.873 20.6112 57.1796ZM28.6466 58.6196C29.4732 59.0863 30.4199 59.3196 31.4866 59.3196C32.5399 59.3196 33.4799 59.0863 34.3066 58.6196C35.1466 58.153 35.7999 57.513 36.2666 56.6996C36.7466 55.8863 36.9866 54.953 36.9866 53.8996C36.9866 52.833 36.7466 51.8996 36.2666 51.0996C35.7999 50.2863 35.1466 49.653 34.3066 49.1996C33.4799 48.733 32.5399 48.4996 31.4866 48.4996C30.4199 48.4996 29.4732 48.733 28.6466 49.1996C27.8199 49.653 27.1666 50.2863 26.6866 51.0996C26.2066 51.913 25.9666 52.8463 25.9666 53.8996C25.9666 54.9396 26.2066 55.873 26.6866 56.6996C27.1666 57.513 27.8199 58.153 28.6466 58.6196ZM33.3066 57.1796C32.7732 57.4863 32.1666 57.6396 31.4866 57.6396C30.8066 57.6396 30.1999 57.4863 29.6666 57.1796C29.1332 56.873 28.7066 56.4396 28.3866 55.8796C28.0666 55.3063 27.9066 54.6463 27.9066 53.8996C27.9066 53.1396 28.0666 52.4863 28.3866 51.9396C28.7066 51.3796 29.1332 50.9463 29.6666 50.6396C30.1999 50.333 30.8066 50.1796 31.4866 50.1796C32.1666 50.1796 32.7732 50.333 33.3066 50.6396C33.8532 50.9463 34.2799 51.3796 34.5866 51.9396C34.8932 52.4863 35.0466 53.1396 35.0466 53.8996C35.0466 54.6463 34.8932 55.3063 34.5866 55.8796C34.2799 56.4396 33.8532 56.873 33.3066 57.1796ZM39.9219 50.1796V59.1996H41.8419V50.1796H44.8819V48.5996H41.8019V47.6796C41.8019 47.0663 41.9485 46.6063 42.2419 46.2996C42.5352 45.9796 42.9619 45.8196 43.5219 45.8196C43.8019 45.8196 44.0685 45.8663 44.3219 45.9596C44.5752 46.0396 44.8019 46.1596 45.0019 46.3196L45.5819 44.8596C45.3152 44.6463 44.9885 44.493 44.6019 44.3996C44.2285 44.293 43.8352 44.2396 43.4219 44.2396C42.3019 44.2396 41.4352 44.553 40.8219 45.1796C40.2219 45.793 39.9219 46.6196 39.9219 47.6596V48.5996H38.1219V50.1796H39.9219ZM47.2127 58.9596C48.0127 59.1996 48.8527 59.3196 49.7327 59.3196C50.6793 59.3196 51.4927 59.193 52.1727 58.9396C52.8527 58.673 53.3793 58.3063 53.7527 57.8396C54.126 57.373 54.3127 56.8196 54.3127 56.1796C54.3127 55.5796 54.186 55.0996 53.9327 54.7396C53.6927 54.3796 53.3727 54.0996 52.9727 53.8996C52.586 53.6996 52.1527 53.5463 51.6727 53.4396C51.1927 53.3196 50.7127 53.2263 50.2327 53.1596C49.7527 53.0796 49.3127 52.9863 48.9127 52.8796C48.526 52.773 48.206 52.6263 47.9527 52.4396C47.7127 52.2396 47.5927 51.9596 47.5927 51.5996C47.5927 51.173 47.7993 50.8263 48.2127 50.5596C48.626 50.2796 49.2527 50.1396 50.0927 50.1396C50.6127 50.1396 51.1327 50.1996 51.6527 50.3196C52.1727 50.4396 52.6727 50.6596 53.1527 50.9796L53.9727 49.4596C53.5193 49.153 52.9327 48.9196 52.2127 48.7596C51.506 48.5863 50.806 48.4996 50.1127 48.4996C49.206 48.4996 48.4193 48.633 47.7527 48.8996C47.0993 49.153 46.5927 49.5196 46.2327 49.9996C45.8727 50.4796 45.6927 51.0396 45.6927 51.6796C45.6927 52.293 45.8127 52.7863 46.0527 53.1596C46.2927 53.5196 46.6127 53.8063 47.0127 54.0196C47.4127 54.2196 47.8527 54.3796 48.3327 54.4996C48.8127 54.6063 49.2927 54.6996 49.7727 54.7796C50.2527 54.8463 50.686 54.9263 51.0727 55.0196C51.4727 55.113 51.7927 55.253 52.0327 55.4396C52.2727 55.6263 52.3927 55.8863 52.3927 56.2196C52.3927 56.673 52.1927 57.0263 51.7927 57.2796C51.406 57.533 50.766 57.6596 49.8727 57.6596C49.1793 57.6596 48.4993 57.553 47.8327 57.3396C47.166 57.1263 46.606 56.8663 46.1527 56.5596L45.3527 58.0796C45.806 58.4263 46.426 58.7196 47.2127 58.9596Z" fill="#631010"/>
</svg>
